<svg width="23" height="22" viewBox="0 0 23 22" fill="none" xmlns="http://www.w3.org/2000/svg">
<g opacity="0.5" clip-path="url(#clip0_36_44)">
<path d="M15.6933 21.8812H7.34595C3.62579 21.8812 0.598083 18.8535 0.598083 15.1333V6.78595C0.598083 3.06579 3.62579 0.0380859 7.34595 0.0380859H15.6933C19.4135 0.0380859 22.4412 3.06579 22.4412 6.78595V15.1333C22.4412 18.8535 19.4135 21.8812 15.6933 21.8812ZM7.34595 2.47432C4.96743 2.47432 3.03251 4.40923 3.03251 6.78776V15.1351C3.03251 17.5137 4.96743 19.4486 7.34595 19.4486H15.6933C18.0719 19.4486 20.0068 17.5137 20.0068 15.1351V6.78776C20.0068 4.40923 18.0719 2.47432 15.6933 2.47432H7.34595Z" fill="white"/>
<path d="M11.5187 16.5414C8.44055 16.5414 5.93579 14.0366 5.93579 10.9584C5.93579 7.88024 8.44055 5.37549 11.5187 5.37549C14.5969 5.37549 17.1017 7.88024 17.1017 10.9584C17.1017 14.0366 14.5969 16.5414 11.5187 16.5414ZM11.5187 7.56827C9.64874 7.56827 8.12858 9.09024 8.12858 10.9602C8.12858 12.8302 9.65055 14.3522 11.5187 14.3522C13.3869 14.3522 14.9089 12.8302 14.9089 10.9602C14.9089 9.09024 13.3869 7.56827 11.5187 7.56827Z" fill="white"/>
<path d="M17.383 5.99609C17.9039 5.99609 18.3261 5.57385 18.3261 5.05298C18.3261 4.53211 17.9039 4.10986 17.383 4.10986C16.8621 4.10986 16.4399 4.53211 16.4399 5.05298C16.4399 5.57385 16.8621 5.99609 17.383 5.99609Z" fill="white"/>
</g>
<defs>
<clipPath id="clip0_36_44">
<rect width="22" height="22" fill="white" transform="translate(0.55481)"/>
</clipPath>
</defs>
</svg>
