<svg width="135" height="148" viewBox="0 0 135 148" fill="none" xmlns="http://www.w3.org/2000/svg">
<g opacity="0.3" filter="url(#filter0_b_25_881)">
<rect x="12" width="122" height="148" rx="10" fill="#808080" fill-opacity="0.75"/>
</g>
<rect x="23.5" y="33.25" width="9" height="0.75" fill="#71F638"/>
<rect x="23.5" y="44.5" width="9" height="0.75" fill="#71F638"/>
<rect x="23.5" y="55.75" width="9" height="0.75" fill="#71F638"/>
<rect x="23.5" y="67" width="9" height="0.75" fill="#71F638"/>
<path d="M28 71.5L32.5 79H23.5L28 71.5Z" fill="#71F638"/>
<path d="M50.772 25V18.52H56.172C56.37 18.52 56.55 18.568 56.712 18.664C56.88 18.76 57.012 18.892 57.108 19.06C57.204 19.222 57.252 19.402 57.252 19.6V23.92C57.252 24.118 57.204 24.301 57.108 24.469C57.012 24.631 56.88 24.76 56.712 24.856C56.55 24.952 56.37 25 56.172 25H50.772ZM51.852 24.271H56.172C56.268 24.271 56.349 24.238 56.415 24.172C56.487 24.1 56.523 24.016 56.523 23.92V19.6C56.523 19.504 56.487 19.423 56.415 19.357C56.349 19.285 56.268 19.249 56.172 19.249H51.852C51.756 19.249 51.672 19.285 51.6 19.357C51.534 19.423 51.501 19.504 51.501 19.6V23.92C51.501 24.016 51.534 24.1 51.6 24.172C51.672 24.238 51.756 24.271 51.852 24.271ZM59.3039 25C59.1059 25 58.9229 24.952 58.7549 24.856C58.5929 24.754 58.4609 24.622 58.3589 24.46C58.2629 24.292 58.2149 24.109 58.2149 23.911V20.869C58.2149 20.671 58.2629 20.491 58.3589 20.329C58.4609 20.161 58.5929 20.029 58.7549 19.933C58.9229 19.831 59.1059 19.78 59.3039 19.78H62.4359C62.6399 19.78 62.8229 19.831 62.9849 19.933C63.1529 20.029 63.2849 20.161 63.3809 20.329C63.4829 20.491 63.5339 20.671 63.5339 20.869V22.759H58.9529V23.911C58.9529 24.007 58.9859 24.091 59.0519 24.163C59.1239 24.229 59.2079 24.262 59.3039 24.262H63.5339V25H59.3039ZM58.9529 22.021H62.7869V20.869C62.7869 20.773 62.7509 20.692 62.6789 20.626C62.6129 20.554 62.5319 20.518 62.4359 20.518H59.3039C59.2079 20.518 59.1239 20.554 59.0519 20.626C58.9859 20.692 58.9529 20.773 58.9529 20.869V22.021ZM64.4733 27.07V19.78H68.7033C68.9013 19.78 69.0813 19.831 69.2433 19.933C69.4113 20.029 69.5433 20.161 69.6393 20.329C69.7413 20.491 69.7923 20.671 69.7923 20.869V23.911C69.7923 24.109 69.7413 24.292 69.6393 24.46C69.5433 24.622 69.4113 24.754 69.2433 24.856C69.0813 24.952 68.9013 25 68.7033 25H65.2113V27.07H64.4733ZM65.5713 24.262H68.7033C68.7993 24.262 68.8803 24.229 68.9463 24.163C69.0183 24.091 69.0543 24.007 69.0543 23.911V20.869C69.0543 20.773 69.0183 20.692 68.9463 20.626C68.8803 20.554 68.7993 20.518 68.7033 20.518H65.5713C65.4753 20.518 65.3913 20.554 65.3193 20.626C65.2473 20.692 65.2113 20.773 65.2113 20.869V23.911C65.2113 24.007 65.2473 24.091 65.3193 24.163C65.3913 24.229 65.4753 24.262 65.5713 24.262ZM71.5299 25C71.3259 25 71.1399 24.952 70.9719 24.856C70.8099 24.754 70.6809 24.622 70.5849 24.46C70.4889 24.292 70.4409 24.109 70.4409 23.911V18.07H71.1789V19.78H73.4379V20.518H71.1789V23.911C71.1789 24.007 71.2119 24.091 71.2779 24.163C71.3499 24.229 71.4339 24.262 71.5299 24.262H73.4379V25H71.5299ZM74.1852 25V18.07H74.9232V19.78H78.4152C78.6132 19.78 78.7932 19.831 78.9552 19.933C79.1232 20.029 79.2552 20.161 79.3512 20.329C79.4532 20.491 79.5042 20.671 79.5042 20.869V25H78.7662V20.869C78.7662 20.773 78.7302 20.692 78.6582 20.626C78.5922 20.554 78.5112 20.518 78.4152 20.518H75.2832C75.1872 20.518 75.1032 20.554 75.0312 20.626C74.9592 20.692 74.9232 20.773 74.9232 20.869V25H74.1852ZM80.1969 26.179V24.262H80.9349V25.144C80.9349 25.306 80.9019 25.456 80.8359 25.594C80.7759 25.732 80.6889 25.852 80.5749 25.954C80.4669 26.056 80.3409 26.131 80.1969 26.179ZM84.3893 25V19.78H91.2833C91.4873 19.78 91.6703 19.831 91.8323 19.933C92.0003 20.029 92.1323 20.161 92.2283 20.329C92.3243 20.491 92.3723 20.671 92.3723 20.869V25H91.6433V20.869C91.6433 20.773 91.6073 20.692 91.5353 20.626C91.4633 20.554 91.3793 20.518 91.2833 20.518H89.1143C89.0183 20.518 88.9343 20.554 88.8623 20.626C88.7963 20.692 88.7633 20.773 88.7633 20.869V25H88.0163V20.869C88.0163 20.773 87.9803 20.692 87.9083 20.626C87.8423 20.554 87.7613 20.518 87.6653 20.518H85.4873C85.3913 20.518 85.3073 20.554 85.2353 20.626C85.1693 20.692 85.1363 20.773 85.1363 20.869V25H84.3893Z" fill="#ADB5BD"/>
<path d="M51.2361 50V44.6C51.2361 44.1467 51.3428 43.74 51.5561 43.38C51.7694 43.0067 52.0561 42.7133 52.4161 42.5C52.7894 42.2867 53.2028 42.18 53.6561 42.18H63.3561C63.5694 42.18 63.7494 42.1067 63.8961 41.96C64.0561 41.8 64.1361 41.6133 64.1361 41.4V38.02C64.1361 37.8067 64.0561 37.6267 63.8961 37.48C63.7494 37.32 63.5694 37.24 63.3561 37.24H53.6561C53.4428 37.24 53.2561 37.32 53.0961 37.48C52.9494 37.6267 52.8761 37.8067 52.8761 38.02V38.58H51.2361V38.02C51.2361 37.5667 51.3428 37.16 51.5561 36.8C51.7694 36.4267 52.0561 36.1333 52.4161 35.92C52.7894 35.6933 53.2028 35.58 53.6561 35.58H63.3561C63.7961 35.58 64.1961 35.6933 64.5561 35.92C64.9294 36.1333 65.2228 36.4267 65.4361 36.8C65.6628 37.16 65.7761 37.5667 65.7761 38.02V41.4C65.7761 41.84 65.6628 42.2467 65.4361 42.62C65.2228 42.98 64.9294 43.2733 64.5561 43.5C64.1961 43.7133 63.7961 43.82 63.3561 43.82H53.6561C53.4428 43.82 53.2561 43.9 53.0961 44.06C52.9494 44.2067 52.8761 44.3867 52.8761 44.6V47.58C52.8761 47.7933 52.9494 47.98 53.0961 48.14C53.2561 48.2867 53.4428 48.36 53.6561 48.36H65.7761V50H51.2361ZM70.0577 50C69.6043 50 69.191 49.8933 68.8177 49.68C68.4577 49.4533 68.171 49.16 67.9577 48.8C67.7443 48.4267 67.6377 48.02 67.6377 47.58V38.02C67.6377 37.5667 67.7443 37.16 67.9577 36.8C68.171 36.4267 68.4577 36.1333 68.8177 35.92C69.191 35.6933 69.6043 35.58 70.0577 35.58H79.6577V37.24H70.0577C69.8443 37.24 69.6577 37.32 69.4977 37.48C69.351 37.6267 69.2777 37.8067 69.2777 38.02V40.9C69.2777 41.1133 69.351 41.3 69.4977 41.46C69.6577 41.62 69.8443 41.7 70.0577 41.7H79.7577C80.1977 41.7 80.5977 41.8067 80.9577 42.02C81.331 42.2333 81.6243 42.5267 81.8377 42.9C82.0643 43.26 82.1777 43.6667 82.1777 44.12V47.58C82.1777 48.02 82.0643 48.4267 81.8377 48.8C81.6243 49.16 81.331 49.4533 80.9577 49.68C80.5977 49.8933 80.1977 50 79.7577 50H70.0577ZM70.0577 48.36H79.7577C79.971 48.36 80.151 48.2867 80.2977 48.14C80.4577 47.98 80.5377 47.7933 80.5377 47.58V44.12C80.5377 43.9067 80.4577 43.7267 80.2977 43.58C80.151 43.42 79.971 43.34 79.7577 43.34H69.2777V47.58C69.2777 47.7933 69.351 47.98 69.4977 48.14C69.6577 48.2867 69.8443 48.36 70.0577 48.36Z" fill="white"/>
<path d="M83.648 50V49.016H84.632V50H83.648ZM87.8224 50C87.5504 50 87.3024 49.936 87.0784 49.808C86.8624 49.672 86.6904 49.496 86.5624 49.28C86.4344 49.056 86.3704 48.812 86.3704 48.548V48.2H87.3544V48.548C87.3544 48.676 87.3984 48.788 87.4864 48.884C87.5824 48.972 87.6944 49.016 87.8224 49.016H93.6424C93.7704 49.016 93.8784 48.972 93.9664 48.884C94.0624 48.788 94.1104 48.676 94.1104 48.548V46.508C94.1104 46.38 94.0624 46.272 93.9664 46.184C93.8784 46.088 93.7704 46.04 93.6424 46.04H86.3704V41.348H95.0944V42.344H87.8224C87.6944 42.344 87.5824 42.392 87.4864 42.488C87.3984 42.576 87.3544 42.684 87.3544 42.812V44.576C87.3544 44.704 87.3984 44.816 87.4864 44.912C87.5824 45.008 87.6944 45.056 87.8224 45.056H93.6424C93.9064 45.056 94.1464 45.12 94.3624 45.248C94.5864 45.376 94.7624 45.552 94.8904 45.776C95.0264 45.992 95.0944 46.236 95.0944 46.508V48.548C95.0944 48.812 95.0264 49.056 94.8904 49.28C94.7624 49.496 94.5864 49.672 94.3624 49.808C94.1464 49.936 93.9064 50 93.6424 50H87.8224Z" fill="white"/>
<path d="M51.522 70.75V64.27H56.823C57.039 64.27 57.237 64.324 57.417 64.432C57.597 64.534 57.738 64.675 57.84 64.855C57.948 65.029 58.002 65.224 58.002 65.44V69.58C58.002 69.796 57.948 69.994 57.84 70.174C57.738 70.348 57.597 70.489 57.417 70.597C57.237 70.699 57.039 70.75 56.823 70.75H51.522ZM52.71 69.778H56.796C56.862 69.778 56.916 69.757 56.958 69.715C57 69.667 57.021 69.613 57.021 69.553V65.467C57.021 65.407 57 65.356 56.958 65.314C56.916 65.266 56.862 65.242 56.796 65.242H52.71C52.65 65.242 52.599 65.266 52.557 65.314C52.515 65.356 52.494 65.407 52.494 65.467V69.553C52.494 69.613 52.515 69.667 52.557 69.715C52.599 69.757 52.65 69.778 52.71 69.778ZM58.9387 70.75V65.53H59.9107V70.75H58.9387ZM58.9387 64.792V63.82H59.9107V64.792H58.9387ZM63.4821 70.75L60.6021 65.53H61.7271L63.9681 69.652L66.2091 65.53H67.3341L64.4541 70.75H63.4821ZM68.88 70.75C68.664 70.75 68.469 70.696 68.295 70.588C68.121 70.48 67.98 70.339 67.872 70.165C67.764 69.991 67.71 69.796 67.71 69.58V66.7C67.71 66.484 67.764 66.289 67.872 66.115C67.98 65.941 68.121 65.8 68.295 65.692C68.469 65.584 68.664 65.53 68.88 65.53H71.85C72.066 65.53 72.261 65.584 72.435 65.692C72.615 65.794 72.756 65.935 72.858 66.115C72.966 66.295 73.02 66.49 73.02 66.7V68.626H68.682V69.553C68.682 69.613 68.703 69.667 68.745 69.715C68.793 69.757 68.847 69.778 68.907 69.778H73.02V70.75H68.88ZM68.682 67.717H72.039V66.727C72.039 66.667 72.018 66.616 71.976 66.574C71.934 66.526 71.883 66.502 71.823 66.502H68.907C68.847 66.502 68.793 66.526 68.745 66.574C68.703 66.616 68.682 66.667 68.682 66.727V67.717ZM79.0268 70.75V65.242H76.2728V64.27H82.7528V65.242H80.0078V70.75H79.0268ZM83.3899 70.75V65.53H84.3619V70.75H83.3899ZM83.3899 64.792V63.82H84.3619V64.792H83.3899ZM85.3503 70.75V65.53H92.0193C92.2413 65.53 92.4393 65.584 92.6133 65.692C92.7873 65.8 92.9253 65.941 93.0273 66.115C93.1353 66.289 93.1893 66.484 93.1893 66.7V70.75H92.2263V66.727C92.2263 66.667 92.2023 66.616 92.1543 66.574C92.1123 66.526 92.0613 66.502 92.0013 66.502H89.9943C89.9283 66.502 89.8743 66.526 89.8323 66.574C89.7903 66.616 89.7693 66.667 89.7693 66.727V70.75H88.7883V66.727C88.7883 66.667 88.7643 66.616 88.7163 66.574C88.6743 66.526 88.6233 66.502 88.5633 66.502H86.5473C86.4873 66.502 86.4363 66.526 86.3943 66.574C86.3523 66.616 86.3313 66.667 86.3313 66.727V70.75H85.3503ZM95.1593 70.75C94.9433 70.75 94.7483 70.696 94.5743 70.588C94.4003 70.48 94.2593 70.339 94.1513 70.165C94.0433 69.991 93.9893 69.796 93.9893 69.58V66.7C93.9893 66.484 94.0433 66.289 94.1513 66.115C94.2593 65.941 94.4003 65.8 94.5743 65.692C94.7483 65.584 94.9433 65.53 95.1593 65.53H98.1293C98.3453 65.53 98.5403 65.584 98.7143 65.692C98.8943 65.794 99.0353 65.935 99.1373 66.115C99.2453 66.295 99.2993 66.49 99.2993 66.7V68.626H94.9613V69.553C94.9613 69.613 94.9823 69.667 95.0243 69.715C95.0723 69.757 95.1263 69.778 95.1863 69.778H99.2993V70.75H95.1593ZM94.9613 67.717H98.3183V66.727C98.3183 66.667 98.2973 66.616 98.2553 66.574C98.2133 66.526 98.1623 66.502 98.1023 66.502H95.1863C95.1263 66.502 95.0723 66.526 95.0243 66.574C94.9823 66.616 94.9613 66.667 94.9613 66.727V67.717Z" fill="#ADB5BD"/>
<path d="M54.15 90.75C53.742 90.75 53.37 90.654 53.034 90.462C52.71 90.258 52.446 89.994 52.242 89.67C52.05 89.334 51.954 88.968 51.954 88.572V88.284H53.448V88.572C53.448 88.764 53.514 88.932 53.646 89.076C53.79 89.208 53.958 89.274 54.15 89.274H62.88C63.072 89.274 63.234 89.208 63.366 89.076C63.51 88.932 63.582 88.764 63.582 88.572V85.566C63.582 85.374 63.51 85.212 63.366 85.08C63.234 84.936 63.072 84.864 62.88 84.864H54.438V83.388H62.304C62.496 83.388 62.658 83.322 62.79 83.19C62.934 83.046 63.006 82.878 63.006 82.686V79.968C63.006 79.776 62.934 79.614 62.79 79.482C62.658 79.338 62.496 79.266 62.304 79.266H54.15C53.958 79.266 53.79 79.338 53.646 79.482C53.514 79.614 53.448 79.776 53.448 79.968V80.436H51.954V79.968C51.954 79.56 52.05 79.194 52.242 78.87C52.446 78.534 52.71 78.27 53.034 78.078C53.37 77.874 53.742 77.772 54.15 77.772H62.304C62.712 77.772 63.078 77.874 63.402 78.078C63.738 78.27 64.002 78.534 64.194 78.87C64.386 79.194 64.482 79.56 64.482 79.968V82.686C64.482 82.854 64.458 83.022 64.41 83.19C64.374 83.346 64.326 83.49 64.266 83.622C64.566 83.91 64.77 84.228 64.878 84.576C64.998 84.924 65.058 85.254 65.058 85.566V88.572C65.058 88.968 64.956 89.334 64.752 89.67C64.56 89.994 64.296 90.258 63.96 90.462C63.636 90.654 63.276 90.75 62.88 90.75H54.15ZM66.7171 90.75V85.89C66.7171 85.482 66.8131 85.116 67.0051 84.792C67.1971 84.456 67.4551 84.192 67.7791 84C68.1151 83.808 68.4871 83.712 68.8951 83.712H77.6251C77.8171 83.712 77.9791 83.646 78.1111 83.514C78.2551 83.37 78.3271 83.202 78.3271 83.01V79.968C78.3271 79.776 78.2551 79.614 78.1111 79.482C77.9791 79.338 77.8171 79.266 77.6251 79.266H68.8951C68.7031 79.266 68.5351 79.338 68.3911 79.482C68.2591 79.614 68.1931 79.776 68.1931 79.968V80.472H66.7171V79.968C66.7171 79.56 66.8131 79.194 67.0051 78.87C67.1971 78.534 67.4551 78.27 67.7791 78.078C68.1151 77.874 68.4871 77.772 68.8951 77.772H77.6251C78.0211 77.772 78.3811 77.874 78.7051 78.078C79.0411 78.27 79.3051 78.534 79.4971 78.87C79.7011 79.194 79.8031 79.56 79.8031 79.968V83.01C79.8031 83.406 79.7011 83.772 79.4971 84.108C79.3051 84.432 79.0411 84.696 78.7051 84.9C78.3811 85.092 78.0211 85.188 77.6251 85.188H68.8951C68.7031 85.188 68.5351 85.26 68.3911 85.404C68.2591 85.536 68.1931 85.698 68.1931 85.89V88.572C68.1931 88.764 68.2591 88.932 68.3911 89.076C68.5351 89.208 68.7031 89.274 68.8951 89.274H79.8031V90.75H66.7171ZM81.4245 81.606V77.772H82.9005V79.536C82.9005 79.86 82.8345 80.166 82.7025 80.454C82.5825 80.73 82.4085 80.97 82.1805 81.174C81.9645 81.378 81.7125 81.522 81.4245 81.606Z" fill="white"/>
<path d="M13 109.5H134.5V137.75C134.5 143.273 130.023 147.75 124.5 147.75H23C17.4772 147.75 13 143.273 13 137.75V109.5Z" fill="#00FFE0"/>
<path d="M41.2748 138C40.8588 138 40.4588 137.92 40.0748 137.76C39.7068 137.584 39.3868 137.352 39.1148 137.064C38.8428 136.76 38.6428 136.416 38.5148 136.032H52.9148C53.1708 136.032 53.3868 135.944 53.5628 135.768C53.7548 135.576 53.8508 135.352 53.8508 135.096V131.616C53.8508 131.36 53.7548 131.144 53.5628 130.968C53.3868 130.776 53.1708 130.68 52.9148 130.68H41.2748C40.7308 130.68 40.2348 130.552 39.7868 130.296C39.3548 130.024 39.0028 129.672 38.7308 129.24C38.4748 128.792 38.3468 128.304 38.3468 127.776V123.624C38.3468 123.08 38.4748 122.592 38.7308 122.16C39.0028 121.712 39.3548 121.36 39.7868 121.104C40.2348 120.832 40.7308 120.696 41.2748 120.696H52.9148C53.4428 120.696 53.9228 120.832 54.3548 121.104C54.8028 121.36 55.1548 121.712 55.4108 122.16C55.6828 122.592 55.8188 123.08 55.8188 123.624V135.096C55.8188 135.624 55.6828 136.112 55.4108 136.56C55.1548 136.992 54.8028 137.344 54.3548 137.616C53.9228 137.872 53.4428 138 52.9148 138H41.2748ZM41.2748 128.712H53.8508V123.624C53.8508 123.368 53.7548 123.152 53.5628 122.976C53.3868 122.784 53.1708 122.688 52.9148 122.688H41.2748C41.0188 122.688 40.7948 122.784 40.6028 122.976C40.4268 123.152 40.3388 123.368 40.3388 123.624V127.776C40.3388 128.032 40.4268 128.256 40.6028 128.448C40.7948 128.624 41.0188 128.712 41.2748 128.712ZM60.9098 138C60.4938 138 60.0938 137.92 59.7098 137.76C59.3418 137.584 59.0218 137.352 58.7498 137.064C58.4778 136.76 58.2778 136.416 58.1498 136.032H72.5498C72.8058 136.032 73.0218 135.944 73.1978 135.768C73.3898 135.576 73.4858 135.352 73.4858 135.096V131.616C73.4858 131.36 73.3898 131.144 73.1978 130.968C73.0218 130.776 72.8058 130.68 72.5498 130.68H60.9098C60.3658 130.68 59.8698 130.552 59.4218 130.296C58.9898 130.024 58.6378 129.672 58.3658 129.24C58.1098 128.792 57.9818 128.304 57.9818 127.776V123.624C57.9818 123.08 58.1098 122.592 58.3658 122.16C58.6378 121.712 58.9898 121.36 59.4218 121.104C59.8698 120.832 60.3658 120.696 60.9098 120.696H72.5498C73.0778 120.696 73.5578 120.832 73.9898 121.104C74.4378 121.36 74.7898 121.712 75.0458 122.16C75.3178 122.592 75.4538 123.08 75.4538 123.624V135.096C75.4538 135.624 75.3178 136.112 75.0458 136.56C74.7898 136.992 74.4378 137.344 73.9898 137.616C73.5578 137.872 73.0778 138 72.5498 138H60.9098ZM60.9098 128.712H73.4858V123.624C73.4858 123.368 73.3898 123.152 73.1978 122.976C73.0218 122.784 72.8058 122.688 72.5498 122.688H60.9098C60.6538 122.688 60.4298 122.784 60.2378 122.976C60.0618 123.152 59.9738 123.368 59.9738 123.624V127.776C59.9738 128.032 60.0618 128.256 60.2378 128.448C60.4298 128.624 60.6538 128.712 60.9098 128.712ZM77.6888 125.808V120.696H79.6568V123.048C79.6568 123.48 79.5688 123.888 79.3928 124.272C79.2328 124.64 79.0008 124.96 78.6968 125.232C78.4088 125.504 78.0728 125.696 77.6888 125.808Z" fill="black"/>
<path opacity="0.7" d="M82.2501 138V131.52H83.4111L87.7491 136.686V131.52H88.7301V138H87.5691L83.2221 132.825V138H82.2501ZM89.7564 138V131.52H95.0574C95.2734 131.52 95.4714 131.574 95.6514 131.682C95.8314 131.784 95.9724 131.925 96.0744 132.105C96.1824 132.279 96.2364 132.474 96.2364 132.69V136.83C96.2364 137.046 96.1824 137.244 96.0744 137.424C95.9724 137.598 95.8314 137.739 95.6514 137.847C95.4714 137.949 95.2734 138 95.0574 138H89.7564ZM90.9444 137.028H95.0304C95.0964 137.028 95.1504 137.007 95.1924 136.965C95.2344 136.917 95.2554 136.863 95.2554 136.803V132.717C95.2554 132.657 95.2344 132.606 95.1924 132.564C95.1504 132.516 95.0964 132.492 95.0304 132.492H90.9444C90.8844 132.492 90.8334 132.516 90.7914 132.564C90.7494 132.606 90.7284 132.657 90.7284 132.717V136.803C90.7284 136.863 90.7494 136.917 90.7914 136.965C90.8334 137.007 90.8844 137.028 90.9444 137.028ZM97.2532 138V131.511H98.2252V137.028H103.733V138H97.2532Z" fill="black"/>
<line x1="13.5" y1="20.5" x2="13.5" y2="33.5" stroke="#00FFE0" stroke-linecap="round"/>
<path d="M3.5 26.65L-1.76657e-07 24.9793L1.76657e-07 29.0207L3.5 27.35L3.5 26.65ZM13 26.65L3.15 26.65L3.15 27.35L13 27.35L13 26.65Z" fill="#00FFE0"/>
<defs>
<filter id="filter0_b_25_881" x="-42" y="-54" width="230" height="256" filterUnits="userSpaceOnUse" color-interpolation-filters="sRGB">
<feFlood flood-opacity="0" result="BackgroundImageFix"/>
<feGaussianBlur in="BackgroundImageFix" stdDeviation="27"/>
<feComposite in2="SourceAlpha" operator="in" result="effect1_backgroundBlur_25_881"/>
<feBlend mode="normal" in="SourceGraphic" in2="effect1_backgroundBlur_25_881" result="shape"/>
</filter>
</defs>
</svg>
